<?xml version="1.0" encoding="UTF-8" standalone="no"?>
<!-- Created with Inkscape (http://www.inkscape.org/) -->

<svg
   xmlns:dc="http://purl.org/dc/elements/1.1/"
   xmlns:cc="http://creativecommons.org/ns#"
   xmlns:rdf="http://www.w3.org/1999/02/22-rdf-syntax-ns#"
   xmlns:svg="http://www.w3.org/2000/svg"
   xmlns="http://www.w3.org/2000/svg"
   xmlns:sodipodi="http://sodipodi.sourceforge.net/DTD/sodipodi-0.dtd"
   xmlns:inkscape="http://www.inkscape.org/namespaces/inkscape"
   width="345.76666mm"
   height="262.57257mm"
   viewBox="0 0 345.76666 262.57257"
   version="1.1"
   id="svg8"
   inkscape:version="0.92.5 (2060ec1f9f, 2020-04-08)"
   sodipodi:docname="hydrogen-directory-icon.svg">
  <defs
     id="defs2" />
  <sodipodi:namedview
     id="base"
     pagecolor="#ffffff"
     bordercolor="#666666"
     borderopacity="1.0"
     inkscape:pageopacity="0.0"
     inkscape:pageshadow="2"
     inkscape:zoom="0.35"
     inkscape:cx="207.61907"
     inkscape:cy="444.97164"
     inkscape:document-units="mm"
     inkscape:current-layer="layer1"
     showgrid="false"
     inkscape:window-width="2512"
     inkscape:window-height="1413"
     inkscape:window-x="48"
     inkscape:window-y="27"
     inkscape:window-maximized="1"
     fit-margin-top="0"
     fit-margin-left="0"
     fit-margin-right="0"
     fit-margin-bottom="0" />
  <metadata
     id="metadata5">
    <rdf:RDF>
      <cc:Work
         rdf:about="">
        <dc:format>image/svg+xml</dc:format>
        <dc:type
           rdf:resource="http://purl.org/dc/dcmitype/StillImage" />
        <dc:title></dc:title>
      </cc:Work>
    </rdf:RDF>
  </metadata>
  <g
     inkscape:label="Layer 1"
     inkscape:groupmode="layer"
     id="layer1"
     transform="translate(-56.948406,-98.486892)">
    <path
       style="fill:#000000;stroke-width:0.35277778"
       d="m 85.699796,360.57493 c -6.79097,-0.13464 -12.90284,-0.39668 -13.58194,-0.5823 -3.77423,-1.03165 -7.91319,-3.91025 -10.42306,-7.24911 -1.87239,-2.49084 -2.71299,-4.04271 -3.90456,-7.20842 l -0.84183,-2.23652 v -39.97362 c 0,-21.98548 0.10574,-73.82068 0.23496,-115.18932 l 0.23496,-75.21572 1.61093,-2.89498 c 2.23867,-4.02309 6.05016,-7.82543 9.58818,-9.56517 2.45163,-1.205534 3.03643,-1.340875 7.05556,-1.632874 2.4103,-0.175114 36.277494,-0.323251 75.260434,-0.329194 l 70.87808,-0.01081 2.92402,1.641268 c 3.60525,2.02366 5.89205,3.88478 7.67737,6.24825 2.61508,3.46194 3.54258,6.64965 4.11747,14.15129 0.20784,2.71209 0.41034,4.96353 0.45001,5.0032 0.0397,0.0397 34.10728,0.24527 75.70582,0.4569 l 75.63369,0.38478 2.62975,1.49119 c 5.03139,2.85301 9.19502,7.40208 10.11996,11.05678 1.29972,5.13555 1.34573,8.4352 1.49722,107.36075 l 0.14826,96.81801 -0.77302,2.13616 c -1.77959,4.91767 -4.44359,8.76991 -7.84335,11.34177 -2.98743,2.25993 -5.32677,3.23035 -8.78516,3.64432 -1.6102,0.19275 -13.81602,0.46013 -27.12404,0.59417 l -24.19642,0.24373 -0.23345,-4.34166 c -0.12839,-2.38791 -0.23345,-5.48525 -0.23345,-6.88297 v -2.54131 l -1.85208,-0.22246 c -1.01865,-0.12235 -4.11427,-0.22384 -6.87917,-0.22553 l -5.02708,-0.003 v 7.05555 7.05556 h -89.95834 -89.95833 v -7.05556 -7.05555 l -5.02708,0.003 c -2.7649,0.002 -5.86052,0.10317 -6.87917,0.22553 l -1.85208,0.22246 -0.001,2.33211 c -7e-4,1.28266 -0.10465,4.35618 -0.23082,6.83003 l -0.22942,4.49781 -13.79209,-0.0669 c -7.58565,-0.0368 -19.348334,-0.17708 -26.139314,-0.31173 z m 26.634724,-20.43524 v -6.70278 h 20.6375 20.6375 v 6.70278 6.70278 h 76.2 76.20001 v -6.70278 -6.70278 h 20.6375 20.6375 v 6.70278 6.70278 h 18.62377 18.62377 l 1.44336,-1.49931 c 1.54862,-1.60864 2.12514,-2.549 2.62555,-4.28251 0.40049,-1.38733 0.39031,-160.91315 -0.0116,-181.91604 -0.32192,-16.82283 -0.35097,-17.03705 -2.45817,-18.12673 -2.4877,-1.28643 -5.86595,-1.34591 -85.28427,-1.50156 l -77.65843,-0.1522 -0.17162,-10.47264 c -0.13749,-8.39016 -0.28708,-10.83566 -0.75224,-12.29825 -0.64822,-2.03816 -1.96505,-3.36656 -4.01955,-4.05487 -1.74404,-0.5843 -125.999894,-0.87427 -135.896684,-0.31714 -10.04032,0.56521 -10.52861,0.83651 -10.99692,6.10987 -0.38087,4.28891 -0.88749,154.17614 -0.65193,192.88082 0.20642,33.91824 -0.0417,31.0388 2.94121,34.13125 l 1.4462,1.49931 h 18.62378 18.623764 z m 124.25836,-62.17709 0.0958,-6.79097 62.35348,-0.0892 62.35347,-0.0892 v 6.88015 6.88014 h -62.44929 -62.44928 z m -0.0126,-34.48064 c 0.0883,-3.68466 0.28117,-6.81997 0.42869,-6.96736 0.30261,-0.30231 123.63654,-0.25379 123.93909,0.0488 0.10702,0.10701 0.27377,3.21484 0.37056,6.90628 l 0.17596,6.71171 H 298.9572 236.41981 l 0.16046,-6.69939 z m -0.0679,-34.98618 v -7.11335 l 20.37292,0.23385 c 11.2051,0.12861 39.22448,0.23399 62.26528,0.23417 l 41.89236,3.4e-4 v 6.64834 6.64833 l -4.49792,0.2294 c -2.47385,0.12617 -30.49323,0.23004 -62.26527,0.23083 l -57.76737,0.001 z"
       id="path75"
       inkscape:connector-curvature="0"
       sodipodi:nodetypes="ccsscsscssssccssssccssccccsccsccccccccccccccccsccccccccccccccccccccscscsccssscccccccccccccccccccccccccsscccsccc" />
    <g
       id="g193"
       transform="matrix(1.4665476,0,0,1.4665476,76.076932,168.99175)">
      <path
         id="path179"
         d="m 50,-2.797 c -4.349,0 -7.966,3.185 -8.653,7.338 C 19.672,8.6 3.268,27.618 3.268,50.471 3.268,76.281 24.19,97.203 50,97.203 75.811,97.203 96.732,76.281 96.732,50.471 96.732,27.618 80.328,8.6 58.652,4.542 57.966,0.388 54.35,-2.797 50,-2.797 Z M 41.384,7.499 c 0.718,4.116 4.294,7.229 8.616,7.229 4.322,0 7.897,-3.112 8.616,-7.229 C 78.688,11.5 93.812,29.222 93.812,50.471 93.812,74.668 74.198,94.283 50,94.283 25.804,94.283 6.188,74.669 6.188,50.471 6.188,29.222 21.312,11.5 41.384,7.499 Z"
         inkscape:connector-curvature="0" />
      <path
         id="path181"
         d="m 67.524,50.471 c 0,9.679 -7.846,17.524 -17.524,17.524 -9.678,0 -17.524,-7.846 -17.524,-17.524 0,-9.678 7.846,-17.524 17.524,-17.524 9.678,0 17.524,7.845 17.524,17.524 z"
         inkscape:connector-curvature="0" />
    </g>
  </g>
</svg>
