<svg width="20" height="20" version="1.1" viewBox="0 0 20 20" xmlns="http://www.w3.org/2000/svg">
 <g transform="translate(133.17 -53.681)">
  <path d="m-126.34 64.018c0 0.8211-0.665 1.4866-1.487 1.4866s-1.487-0.6655-1.487-1.4866c0-0.8209 0.665-1.4864 1.487-1.4864s1.487 0.6655 1.487 1.4864zm-1.487-4.5187c-0.369 0-0.675 0.2702-0.734 0.6224-1.839 0.3444-3.23 1.9578-3.23 3.8963 0 2.1895 1.773 3.9644 3.964 3.9644s3.964-1.7749 3.964-3.9644c0-1.9385-1.391-3.5519-3.229-3.8961-0.059-0.3524-0.365-0.6226-0.735-0.6226zm-0.73 0.8734c0.061 0.3491 0.363 0.6132 0.73 0.6132s0.669-0.2638 0.73-0.6132c1.703 0.3395 2.987 1.8428 2.987 3.6453 0 2.0526-1.664 3.7165-3.717 3.7165s-3.716-1.6637-3.716-3.7165c0-1.8025 1.283-3.3058 2.986-3.6453zm-2.956 10.446c-0.391-0.0079-0.745-0.023-0.785-0.0337-0.218-0.0597-0.457-0.2263-0.603-0.4193-0.107-0.1441-0.155-0.2339-0.225-0.4169l-0.048-0.1294v-2.3122c0-1.2717 7e-3 -4.27 0.013-6.6631l0.013-4.3505 0.094-0.1675c0.129-0.2328 0.35-0.4527 0.555-0.5533 0.14-0.0697 0.175-0.0776 0.407-0.0944 0.14-0.0101 2.099-0.0188 4.353-0.0191l4.101-6e-4 0.168 0.0949c0.21 0.1171 0.341 0.2247 0.444 0.3613 0.151 0.2003 0.206 0.3848 0.238 0.8188 0.014 0.1567 0.024 0.287 0.027 0.2892 2e-3 0.0024 1.974 0.0142 4.379 0.0265l4.374 0.0223 0.153 0.0863c0.291 0.1649 0.531 0.4281 0.586 0.6395 0.074 0.2971 0.077 0.4879 0.085 6.2101l9e-3 5.6002-0.043 0.1235c-0.103 0.2846-0.258 0.5074-0.455 0.6561-0.173 0.1307-0.308 0.1869-0.507 0.211-0.094 0.0109-0.801 0.0264-1.57 0.0343l-1.399 0.014-0.013-0.2512c-9e-3 -0.138-0.014-0.3173-0.014-0.3981v-0.147l-0.107-0.0129c-0.059-0.0069-0.238-0.0129-0.398-0.0131h-0.29v0.408 0.4081h-5.206-5.203v-0.4081-0.408h-0.291c-0.159 2e-4 -0.338 0.0061-0.397 0.0131l-0.108 0.0129v0.1349c0 0.0741-7e-3 0.2521-0.013 0.3951l-0.013 0.2601-0.798-0.0039c-0.439-2e-3 -1.119-0.0101-1.513-0.018zm1.541-1.1821v-0.3876h1.194 1.194v0.3876 0.3878h4.407 4.408v-0.3878-0.3876h1.195 1.194v0.3876 0.3878h1.076 1.077l0.084-0.0868c0.089-0.0931 0.122-0.1473 0.153-0.2477 0.021-0.0802 0.021-9.3077-2e-3 -10.523-0.018-0.9731-0.02-0.9855-0.143-1.0485-0.142-0.0743-0.338-0.0778-4.932-0.0868l-4.492-9e-3 -9e-3 -0.6057c-9e-3 -0.4852-0.018-0.6266-0.044-0.7112-0.037-0.1181-0.114-0.1948-0.234-0.2346-0.1-0.0339-7.287-0.0507-7.859-0.0184-0.582 0.0326-0.61 0.0484-0.636 0.3533-0.022 0.2482-0.053 8.9182-0.038 11.157 0.011 1.9621-4e-3 1.7955 0.169 1.9743l0.085 0.0868h1.076 1.077zm7.189-3.5965 4e-3 -0.3929 3.607-5e-3 3.607-0.0052v0.3981 0.3979h-3.612-3.613zm0-1.9945c4e-3 -0.2131 0.015-0.3944 0.024-0.4029 0.017-0.0175 7.151-0.0147 7.168 0.0029 7e-3 0.0061 0.016 0.1858 0.022 0.3994l0.011 0.3883h-3.618-3.618zm-4e-3 -2.0238v-0.4114l1.178 0.0136c0.647 0.0074 2.269 0.0135 3.601 0.0135h2.424v0.3846 0.3845l-0.26 0.0133c-0.144 0.0072-1.764 0.0134-3.603 0.0134h-3.34z" stroke-width="2.1862"/>
 </g>
</svg>
